<?xml version="1.0" standalone="no"?>
<!DOCTYPE svg PUBLIC "-//W3C//DTD SVG 20010904//EN"
 "http://www.w3.org/TR/2001/REC-SVG-20010904/DTD/svg10.dtd">
<svg version="1.0" xmlns="http://www.w3.org/2000/svg"
 width="500.000000pt" height="147.000000pt" viewBox="0 0 500.000000 147.000000"
 preserveAspectRatio="xMidYMid meet">
<metadata>
Created by potrace 1.16, written by Peter Selinger 2001-2019
</metadata>
<g transform="translate(0.000000,147.000000) scale(0.100000,-0.100000)"
fill="#000000" stroke="none">
<path d="M2870 1230 c0 -23 2 -23 -266 -20 -179 2 -194 -3 -194 -61 0 -18 -4
-28 -10 -24 -5 3 -10 19 -10 34 0 15 -5 32 -12 39 -17 17 -319 17 -336 0 -8
-8 -12 -71 -13 -212 -1 -223 -7 -218 -34 27 -13 109 -23 165 -34 178 -14 18
-29 20 -151 20 -109 0 -137 -3 -146 -16 -6 -8 -19 -81 -29 -162 -25 -208 -33
-231 -34 -95 -1 125 -10 158 -60 215 -40 45 -106 70 -185 71 -81 0 -126 -17
-175 -65 -64 -65 -66 -76 -65 -424 1 -295 2 -312 22 -351 44 -87 130 -130 241
-122 51 4 82 12 115 32 52 30 56 31 56 11 0 -25 36 -35 123 -35 108 0 119 10
127 118 7 87 16 79 25 -23 4 -47 11 -74 22 -82 21 -16 380 -18 399 -2 9 7 19
7 33 0 26 -15 224 -14 238 0 8 8 17 8 31 0 27 -14 185 -14 199 0 8 8 13 8 17
0 5 -7 63 -11 167 -11 148 0 160 1 180 21 12 12 19 29 16 40 -4 15 2 13 32
-11 135 -109 340 -65 402 85 7 17 13 83 13 155 1 77 6 133 14 147 15 26 15 36
2 28 -11 -7 -12 0 -12 134 0 209 -31 287 -133 332 -93 42 -233 22 -290 -41
-17 -19 -18 -19 -34 13 l-16 32 -98 3 c-84 2 -99 5 -110 22 -15 26 -27 25 -27
0z m-1413 -69 c26 -12 52 -35 70 -62 26 -40 28 -51 32 -161 l3 -118 -81 0 -81
0 0 98 c0 63 -4 102 -12 110 -18 18 -56 14 -68 -7 -6 -12 -10 -121 -10 -285
l0 -266 24 -15 c19 -13 29 -14 45 -5 19 10 21 20 21 120 l0 110 80 0 80 0 0
-102 c0 -57 -5 -120 -11 -141 -40 -146 -262 -184 -355 -61 l-29 37 -3 301 c-2
166 0 316 3 334 7 39 58 100 100 118 45 20 143 17 192 -5z m1945 9 c21 -6 51
-22 68 -37 57 -48 60 -66 60 -395 0 -286 -1 -302 -21 -338 -62 -110 -238 -130
-326 -38 -50 54 -53 77 -53 382 1 346 6 367 104 415 45 23 110 27 168 11z
m-1468 -22 c3 -13 12 -84 20 -158 9 -74 30 -245 46 -380 16 -135 30 -255 30
-267 0 -22 -4 -23 -79 -23 l-78 0 -7 46 c-3 26 -6 71 -6 100 l0 54 -50 0 -50
0 0 -39 c0 -21 -3 -66 -6 -100 l-7 -61 -77 0 -76 0 7 68 c42 353 91 759 94
770 3 9 36 12 119 12 112 0 116 -1 120 -22z m425 -155 c7 -98 17 -211 22 -251
5 -40 9 -118 9 -173 0 -59 4 -99 10 -99 6 0 10 27 10 61 0 73 38 608 45 627 3
9 40 12 135 12 l130 0 0 -425 0 -425 -75 0 -75 0 0 340 c0 333 -11 441 -24
238 -4 -57 -11 -146 -16 -198 -5 -52 -15 -159 -21 -237 l-12 -143 -98 0 -98 0
-5 43 c-3 23 -10 98 -16 167 -6 69 -15 172 -20 230 -5 58 -12 136 -16 173 -12
137 -17 50 -15 -276 l2 -334 -32 -7 c-18 -3 -54 -3 -81 0 l-48 7 0 417 c0 229
3 420 7 423 3 4 66 7 138 7 l132 0 12 -177z m721 107 l0 -70 -65 0 -65 0 0
-105 0 -104 58 -3 57 -3 3 -67 3 -68 -61 0 -60 0 0 -110 0 -110 65 0 65 0 0
-70 0 -70 -145 0 -145 0 0 418 c0 230 3 422 7 425 3 4 69 7 145 7 l138 0 0
-70z m-1585 -318 c102 3 105 2 105 -19 0 -46 -4 -48 -111 -45 -67 2 -105 -1
-115 -9 -12 -10 -14 -3 -14 41 0 45 2 51 15 40 10 -8 47 -11 120 -8z"/>
<path d="M3302 1031 c-11 -6 -14 -64 -13 -277 0 -148 0 -275 0 -282 1 -7 12
-18 26 -24 21 -9 28 -8 45 7 19 17 20 31 20 282 0 163 -4 272 -10 284 -11 20
-45 25 -68 10z"/>
<path d="M3673 1180 c-37 -16 -54 -53 -51 -112 3 -52 4 -53 38 -58 l35 -5 -26
-20 c-36 -29 -50 -73 -47 -146 l3 -64 98 -3 c80 -2 98 0 103 12 5 14 8 14 27
1 25 -17 99 -20 129 -4 36 20 49 72 49 201 -1 66 4 128 9 139 9 15 7 19 -7 19
-10 0 -26 9 -35 19 -19 22 -76 36 -111 27 -12 -3 -33 -15 -45 -26 l-23 -21
-17 21 c-20 25 -92 36 -129 20z m112 -35 c21 -20 25 -34 25 -84 0 -58 -2 -61
-51 -116 -30 -31 -58 -54 -65 -51 -7 3 -16 1 -19 -4 -4 -6 1 -10 9 -10 20 0
20 -5 -1 -36 -19 -29 -6 -46 28 -37 25 7 24 23 -1 23 -11 0 -17 5 -15 13 4 8
23 11 60 9 53 -4 55 -5 55 -33 l0 -29 -85 0 -85 0 0 66 c0 65 0 66 51 119 45
47 50 58 47 91 -4 51 -26 56 -30 7 -3 -35 -6 -38 -35 -41 l-33 -3 0 50 c0 42
4 53 26 70 37 29 89 27 119 -4z m180 19 c20 -8 45 -56 45 -89 0 -28 -12 -32
-30 -10 -14 17 -30 11 -30 -11 0 -9 11 -14 31 -14 l31 0 -4 -105 c-3 -91 -6
-107 -25 -126 -29 -30 -97 -30 -126 0 -20 19 -22 34 -25 137 -4 135 2 178 29
205 19 19 71 25 104 13z"/>
<path d="M3694 733 c-12 -2 -32 -15 -45 -29 -19 -20 -24 -36 -24 -82 l0 -57
40 -5 c27 -3 36 -8 27 -13 -7 -5 -27 -27 -43 -49 -25 -35 -29 -50 -29 -104 0
-35 5 -66 11 -69 11 -8 190 -8 197 0 3 3 5 19 6 37 1 29 4 33 33 36 30 3 32 1
35 -35 l3 -38 50 0 50 0 3 38 c2 20 7 37 13 37 5 0 9 20 9 45 0 25 -4 45 -10
45 -5 0 -11 50 -12 118 l-3 117 -60 0 -59 0 -26 -80 -25 -80 -5 60 c-6 72 -12
83 -56 101 -34 14 -41 15 -80 7z m90 -34 c24 -19 26 -27 26 -90 l0 -69 -50
-50 c-27 -27 -53 -50 -57 -49 -21 3 -21 -3 -3 -21 14 -14 33 -20 65 -20 32 0
45 -4 45 -14 0 -8 3 -21 6 -30 5 -14 -6 -16 -86 -16 l-92 0 4 64 c4 62 6 67
56 120 54 57 68 101 39 125 -19 15 -27 4 -27 -36 0 -31 -2 -33 -35 -33 -33 0
-35 2 -35 35 0 19 5 45 11 59 22 47 89 60 133 25z m206 -109 c0 -73 4 -120 10
-120 6 0 10 -13 10 -30 0 -16 -4 -30 -10 -30 -5 0 -10 -16 -10 -35 0 -33 -2
-35 -35 -35 -33 0 -35 2 -35 35 0 35 0 35 -45 35 -44 0 -45 0 -45 34 0 18 4
46 10 62 5 16 21 68 35 117 l26 87 45 0 44 0 0 -120z"/>
</g>
</svg>
